<mxfile host="app.diagrams.net" modified="2021-08-24T10:43:19.765Z" agent="5.0 (Windows NT 10.0; Win64; x64) AppleWebKit/537.36 (KHTML, like Gecko) Chrome/92.0.4515.159 Safari/537.36" etag="UShoKpWYRYrJOSSNBhXa" version="14.9.8" type="github">
  <diagram name="Page-1" id="b5b7bab2-c9e2-2cf4-8b2a-24fd1a2a6d21">
    <mxGraphModel dx="1422" dy="705" grid="1" gridSize="10" guides="1" tooltips="1" connect="1" arrows="1" fold="1" page="1" pageScale="1" pageWidth="827" pageHeight="1169" background="none" math="0" shadow="0">
      <root>
        <mxCell id="0" />
        <mxCell id="1" parent="0" />
        <mxCell id="6e0c8c40b5770093-72" value="f" style="shape=folder;fontStyle=1;spacingTop=10;tabWidth=194;tabHeight=22;tabPosition=left;html=1;rounded=0;shadow=0;comic=0;labelBackgroundColor=none;strokeWidth=1;fillColor=none;fontFamily=Verdana;fontSize=10;align=center;" parent="1" vertex="1">
          <mxGeometry x="20" y="114.5" width="1307.5" height="725.5" as="geometry" />
        </mxCell>
        <mxCell id="6e0c8c40b5770093-73" value="&amp;lt;&amp;lt;model&amp;gt;&amp;gt;" style="text;html=1;align=left;verticalAlign=top;spacingTop=-4;fontSize=10;fontFamily=Verdana" parent="1" vertex="1">
          <mxGeometry x="30" y="114.5" width="130" height="20" as="geometry" />
        </mxCell>
        <mxCell id="W9yFOG3q7UIDgqOnqvDU-2" value="Simulation" style="swimlane;fontStyle=1;align=center;verticalAlign=top;childLayout=stackLayout;horizontal=1;startSize=26;horizontalStack=0;resizeParent=1;resizeParentMax=0;resizeLast=0;collapsible=1;marginBottom=0;" vertex="1" parent="1">
          <mxGeometry x="370" y="360" width="160" height="226" as="geometry">
            <mxRectangle x="940" y="337" width="90" height="26" as="alternateBounds" />
          </mxGeometry>
        </mxCell>
        <mxCell id="W9yFOG3q7UIDgqOnqvDU-3" value="input1: submodel list" style="text;strokeColor=none;fillColor=none;align=left;verticalAlign=top;spacingLeft=4;spacingRight=4;overflow=hidden;rotatable=0;points=[[0,0.5],[1,0.5]];portConstraint=eastwest;" vertex="1" parent="W9yFOG3q7UIDgqOnqvDU-2">
          <mxGeometry y="26" width="160" height="24" as="geometry" />
        </mxCell>
        <mxCell id="W9yFOG3q7UIDgqOnqvDU-20" value="input2: solver" style="text;strokeColor=none;fillColor=none;align=left;verticalAlign=top;spacingLeft=4;spacingRight=4;overflow=hidden;rotatable=0;points=[[0,0.5],[1,0.5]];portConstraint=eastwest;" vertex="1" parent="W9yFOG3q7UIDgqOnqvDU-2">
          <mxGeometry y="50" width="160" height="27" as="geometry" />
        </mxCell>
        <mxCell id="W9yFOG3q7UIDgqOnqvDU-58" value="input3: storyboard" style="text;strokeColor=none;fillColor=none;align=left;verticalAlign=top;spacingLeft=4;spacingRight=4;overflow=hidden;rotatable=0;points=[[0,0.5],[1,0.5]];portConstraint=eastwest;" vertex="1" parent="W9yFOG3q7UIDgqOnqvDU-2">
          <mxGeometry y="77" width="160" height="27" as="geometry" />
        </mxCell>
        <mxCell id="W9yFOG3q7UIDgqOnqvDU-61" value="input4: target list" style="text;strokeColor=none;fillColor=none;align=left;verticalAlign=top;spacingLeft=4;spacingRight=4;overflow=hidden;rotatable=0;points=[[0,0.5],[1,0.5]];portConstraint=eastwest;" vertex="1" parent="W9yFOG3q7UIDgqOnqvDU-2">
          <mxGeometry y="104" width="160" height="27" as="geometry" />
        </mxCell>
        <mxCell id="W9yFOG3q7UIDgqOnqvDU-80" value="input5: DMU" style="text;strokeColor=none;fillColor=none;align=left;verticalAlign=top;spacingLeft=4;spacingRight=4;overflow=hidden;rotatable=0;points=[[0,0.5],[1,0.5]];portConstraint=eastwest;" vertex="1" parent="W9yFOG3q7UIDgqOnqvDU-2">
          <mxGeometry y="131" width="160" height="27" as="geometry" />
        </mxCell>
        <mxCell id="W9yFOG3q7UIDgqOnqvDU-4" value="" style="line;strokeWidth=1;fillColor=none;align=left;verticalAlign=middle;spacingTop=-1;spacingLeft=3;spacingRight=3;rotatable=0;labelPosition=right;points=[];portConstraint=eastwest;" vertex="1" parent="W9yFOG3q7UIDgqOnqvDU-2">
          <mxGeometry y="158" width="160" height="8" as="geometry" />
        </mxCell>
        <mxCell id="W9yFOG3q7UIDgqOnqvDU-5" value="output1: key results&#xa;" style="text;strokeColor=none;fillColor=none;align=left;verticalAlign=top;spacingLeft=4;spacingRight=4;overflow=hidden;rotatable=0;points=[[0,0.5],[1,0.5]];portConstraint=eastwest;" vertex="1" parent="W9yFOG3q7UIDgqOnqvDU-2">
          <mxGeometry y="166" width="160" height="30" as="geometry" />
        </mxCell>
        <mxCell id="W9yFOG3q7UIDgqOnqvDU-14" value="output2: files" style="text;strokeColor=none;fillColor=none;align=left;verticalAlign=top;spacingLeft=4;spacingRight=4;overflow=hidden;rotatable=0;points=[[0,0.5],[1,0.5]];portConstraint=eastwest;" vertex="1" parent="W9yFOG3q7UIDgqOnqvDU-2">
          <mxGeometry y="196" width="160" height="30" as="geometry" />
        </mxCell>
        <mxCell id="W9yFOG3q7UIDgqOnqvDU-11" style="edgeStyle=orthogonalEdgeStyle;rounded=0;orthogonalLoop=1;jettySize=auto;html=1;" edge="1" parent="1" source="W9yFOG3q7UIDgqOnqvDU-7" target="W9yFOG3q7UIDgqOnqvDU-3">
          <mxGeometry relative="1" as="geometry" />
        </mxCell>
        <mxCell id="W9yFOG3q7UIDgqOnqvDU-7" value="Submodels" style="swimlane;fontStyle=0;childLayout=stackLayout;horizontal=1;startSize=26;fillColor=none;horizontalStack=0;resizeParent=1;resizeParentMax=0;resizeLast=0;collapsible=1;marginBottom=0;" vertex="1" parent="1">
          <mxGeometry x="80" y="240" width="140" height="130" as="geometry" />
        </mxCell>
        <mxCell id="W9yFOG3q7UIDgqOnqvDU-8" value="settings" style="text;strokeColor=none;fillColor=none;align=left;verticalAlign=top;spacingLeft=4;spacingRight=4;overflow=hidden;rotatable=0;points=[[0,0.5],[1,0.5]];portConstraint=eastwest;" vertex="1" parent="W9yFOG3q7UIDgqOnqvDU-7">
          <mxGeometry y="26" width="140" height="26" as="geometry" />
        </mxCell>
        <mxCell id="W9yFOG3q7UIDgqOnqvDU-9" value="mesh" style="text;strokeColor=none;fillColor=none;align=left;verticalAlign=top;spacingLeft=4;spacingRight=4;overflow=hidden;rotatable=0;points=[[0,0.5],[1,0.5]];portConstraint=eastwest;" vertex="1" parent="W9yFOG3q7UIDgqOnqvDU-7">
          <mxGeometry y="52" width="140" height="26" as="geometry" />
        </mxCell>
        <mxCell id="W9yFOG3q7UIDgqOnqvDU-10" value="design changes" style="text;strokeColor=none;fillColor=none;align=left;verticalAlign=top;spacingLeft=4;spacingRight=4;overflow=hidden;rotatable=0;points=[[0,0.5],[1,0.5]];portConstraint=eastwest;" vertex="1" parent="W9yFOG3q7UIDgqOnqvDU-7">
          <mxGeometry y="78" width="140" height="26" as="geometry" />
        </mxCell>
        <mxCell id="W9yFOG3q7UIDgqOnqvDU-13" value="regime" style="text;strokeColor=none;fillColor=none;align=left;verticalAlign=top;spacingLeft=4;spacingRight=4;overflow=hidden;rotatable=0;points=[[0,0.5],[1,0.5]];portConstraint=eastwest;" vertex="1" parent="W9yFOG3q7UIDgqOnqvDU-7">
          <mxGeometry y="104" width="140" height="26" as="geometry" />
        </mxCell>
        <mxCell id="W9yFOG3q7UIDgqOnqvDU-32" value="Loadcase" style="swimlane;fontStyle=1;align=center;verticalAlign=top;childLayout=stackLayout;horizontal=1;startSize=26;horizontalStack=0;resizeParent=1;resizeParentMax=0;resizeLast=0;collapsible=1;marginBottom=0;" vertex="1" parent="1">
          <mxGeometry x="770" y="490" width="160" height="158" as="geometry">
            <mxRectangle x="940" y="337" width="90" height="26" as="alternateBounds" />
          </mxGeometry>
        </mxCell>
        <mxCell id="W9yFOG3q7UIDgqOnqvDU-42" value="input1: simulation list" style="text;strokeColor=none;fillColor=none;align=left;verticalAlign=top;spacingLeft=4;spacingRight=4;overflow=hidden;rotatable=0;points=[[0,0.5],[1,0.5]];portConstraint=eastwest;" vertex="1" parent="W9yFOG3q7UIDgqOnqvDU-32">
          <mxGeometry y="26" width="160" height="34" as="geometry" />
        </mxCell>
        <mxCell id="W9yFOG3q7UIDgqOnqvDU-33" value="input2: target list" style="text;strokeColor=none;fillColor=none;align=left;verticalAlign=top;spacingLeft=4;spacingRight=4;overflow=hidden;rotatable=0;points=[[0,0.5],[1,0.5]];portConstraint=eastwest;" vertex="1" parent="W9yFOG3q7UIDgqOnqvDU-32">
          <mxGeometry y="60" width="160" height="34" as="geometry" />
        </mxCell>
        <mxCell id="W9yFOG3q7UIDgqOnqvDU-59" value="input3: storyboard list" style="text;strokeColor=none;fillColor=none;align=left;verticalAlign=top;spacingLeft=4;spacingRight=4;overflow=hidden;rotatable=0;points=[[0,0.5],[1,0.5]];portConstraint=eastwest;" vertex="1" parent="W9yFOG3q7UIDgqOnqvDU-32">
          <mxGeometry y="94" width="160" height="26" as="geometry" />
        </mxCell>
        <mxCell id="W9yFOG3q7UIDgqOnqvDU-35" value="" style="line;strokeWidth=1;fillColor=none;align=left;verticalAlign=middle;spacingTop=-1;spacingLeft=3;spacingRight=3;rotatable=0;labelPosition=right;points=[];portConstraint=eastwest;" vertex="1" parent="W9yFOG3q7UIDgqOnqvDU-32">
          <mxGeometry y="120" width="160" height="8" as="geometry" />
        </mxCell>
        <mxCell id="W9yFOG3q7UIDgqOnqvDU-36" value="output1: matrix" style="text;strokeColor=none;fillColor=none;align=left;verticalAlign=top;spacingLeft=4;spacingRight=4;overflow=hidden;rotatable=0;points=[[0,0.5],[1,0.5]];portConstraint=eastwest;" vertex="1" parent="W9yFOG3q7UIDgqOnqvDU-32">
          <mxGeometry y="128" width="160" height="30" as="geometry" />
        </mxCell>
        <mxCell id="W9yFOG3q7UIDgqOnqvDU-48" value="Target library" style="swimlane;fontStyle=0;childLayout=stackLayout;horizontal=1;startSize=26;fillColor=none;horizontalStack=0;resizeParent=1;resizeParentMax=0;resizeLast=0;collapsible=1;marginBottom=0;" vertex="1" parent="1">
          <mxGeometry x="1140" y="210" width="140" height="78" as="geometry" />
        </mxCell>
        <mxCell id="W9yFOG3q7UIDgqOnqvDU-49" value="target groups" style="text;strokeColor=none;fillColor=none;align=left;verticalAlign=top;spacingLeft=4;spacingRight=4;overflow=hidden;rotatable=0;points=[[0,0.5],[1,0.5]];portConstraint=eastwest;" vertex="1" parent="W9yFOG3q7UIDgqOnqvDU-48">
          <mxGeometry y="26" width="140" height="26" as="geometry" />
        </mxCell>
        <mxCell id="W9yFOG3q7UIDgqOnqvDU-50" value="target values" style="text;strokeColor=none;fillColor=none;align=left;verticalAlign=top;spacingLeft=4;spacingRight=4;overflow=hidden;rotatable=0;points=[[0,0.5],[1,0.5]];portConstraint=eastwest;" vertex="1" parent="W9yFOG3q7UIDgqOnqvDU-48">
          <mxGeometry y="52" width="140" height="26" as="geometry" />
        </mxCell>
        <mxCell id="W9yFOG3q7UIDgqOnqvDU-54" value="Solvers" style="swimlane;fontStyle=0;childLayout=stackLayout;horizontal=1;startSize=26;fillColor=none;horizontalStack=0;resizeParent=1;resizeParentMax=0;resizeLast=0;collapsible=1;marginBottom=0;" vertex="1" parent="1">
          <mxGeometry x="80" y="550" width="140" height="52" as="geometry" />
        </mxCell>
        <mxCell id="W9yFOG3q7UIDgqOnqvDU-55" value="Solver list" style="text;strokeColor=none;fillColor=none;align=left;verticalAlign=top;spacingLeft=4;spacingRight=4;overflow=hidden;rotatable=0;points=[[0,0.5],[1,0.5]];portConstraint=eastwest;" vertex="1" parent="W9yFOG3q7UIDgqOnqvDU-54">
          <mxGeometry y="26" width="140" height="26" as="geometry" />
        </mxCell>
        <mxCell id="W9yFOG3q7UIDgqOnqvDU-57" style="edgeStyle=orthogonalEdgeStyle;rounded=0;orthogonalLoop=1;jettySize=auto;html=1;exitX=1;exitY=0.5;exitDx=0;exitDy=0;entryX=0;entryY=0.5;entryDx=0;entryDy=0;" edge="1" parent="1" source="W9yFOG3q7UIDgqOnqvDU-55" target="W9yFOG3q7UIDgqOnqvDU-20">
          <mxGeometry relative="1" as="geometry" />
        </mxCell>
        <mxCell id="W9yFOG3q7UIDgqOnqvDU-62" style="edgeStyle=orthogonalEdgeStyle;rounded=0;orthogonalLoop=1;jettySize=auto;html=1;entryX=1;entryY=0.5;entryDx=0;entryDy=0;" edge="1" parent="1" source="W9yFOG3q7UIDgqOnqvDU-33" target="W9yFOG3q7UIDgqOnqvDU-61">
          <mxGeometry relative="1" as="geometry">
            <Array as="points">
              <mxPoint x="660" y="567" />
              <mxPoint x="660" y="478" />
            </Array>
          </mxGeometry>
        </mxCell>
        <mxCell id="W9yFOG3q7UIDgqOnqvDU-64" style="edgeStyle=orthogonalEdgeStyle;rounded=0;orthogonalLoop=1;jettySize=auto;html=1;entryX=0.5;entryY=0;entryDx=0;entryDy=0;" edge="1" parent="1" source="W9yFOG3q7UIDgqOnqvDU-63" target="W9yFOG3q7UIDgqOnqvDU-7">
          <mxGeometry relative="1" as="geometry" />
        </mxCell>
        <mxCell id="W9yFOG3q7UIDgqOnqvDU-65" style="edgeStyle=orthogonalEdgeStyle;rounded=0;orthogonalLoop=1;jettySize=auto;html=1;entryX=0.5;entryY=0;entryDx=0;entryDy=0;" edge="1" parent="1" source="W9yFOG3q7UIDgqOnqvDU-63" target="W9yFOG3q7UIDgqOnqvDU-48">
          <mxGeometry relative="1" as="geometry" />
        </mxCell>
        <mxCell id="W9yFOG3q7UIDgqOnqvDU-76" style="edgeStyle=orthogonalEdgeStyle;rounded=0;orthogonalLoop=1;jettySize=auto;html=1;entryX=1;entryY=0.5;entryDx=0;entryDy=0;" edge="1" parent="1" source="W9yFOG3q7UIDgqOnqvDU-63" target="W9yFOG3q7UIDgqOnqvDU-59">
          <mxGeometry relative="1" as="geometry" />
        </mxCell>
        <mxCell id="W9yFOG3q7UIDgqOnqvDU-77" style="edgeStyle=orthogonalEdgeStyle;rounded=0;orthogonalLoop=1;jettySize=auto;html=1;entryX=1;entryY=0.5;entryDx=0;entryDy=0;" edge="1" parent="1" source="W9yFOG3q7UIDgqOnqvDU-63" target="W9yFOG3q7UIDgqOnqvDU-33">
          <mxGeometry relative="1" as="geometry">
            <Array as="points">
              <mxPoint x="940" y="385" />
              <mxPoint x="980" y="385" />
              <mxPoint x="980" y="567" />
            </Array>
          </mxGeometry>
        </mxCell>
        <mxCell id="W9yFOG3q7UIDgqOnqvDU-79" style="edgeStyle=orthogonalEdgeStyle;rounded=0;orthogonalLoop=1;jettySize=auto;html=1;entryX=0.5;entryY=0;entryDx=0;entryDy=0;" edge="1" parent="1" source="W9yFOG3q7UIDgqOnqvDU-63" target="W9yFOG3q7UIDgqOnqvDU-68">
          <mxGeometry relative="1" as="geometry" />
        </mxCell>
        <mxCell id="W9yFOG3q7UIDgqOnqvDU-93" style="edgeStyle=orthogonalEdgeStyle;rounded=0;orthogonalLoop=1;jettySize=auto;html=1;" edge="1" parent="1" source="W9yFOG3q7UIDgqOnqvDU-63" target="W9yFOG3q7UIDgqOnqvDU-88">
          <mxGeometry relative="1" as="geometry">
            <Array as="points">
              <mxPoint x="580" y="195" />
              <mxPoint x="580" y="703" />
            </Array>
          </mxGeometry>
        </mxCell>
        <mxCell id="W9yFOG3q7UIDgqOnqvDU-63" value="User" style="html=1;" vertex="1" parent="1">
          <mxGeometry x="850" y="170" width="110" height="50" as="geometry" />
        </mxCell>
        <mxCell id="W9yFOG3q7UIDgqOnqvDU-68" value="Management" style="swimlane;fontStyle=0;childLayout=stackLayout;horizontal=1;startSize=26;fillColor=none;horizontalStack=0;resizeParent=1;resizeParentMax=0;resizeLast=0;collapsible=1;marginBottom=0;" vertex="1" parent="1">
          <mxGeometry x="610" y="220" width="140" height="104" as="geometry" />
        </mxCell>
        <mxCell id="W9yFOG3q7UIDgqOnqvDU-69" value="Wikipages" style="text;strokeColor=none;fillColor=none;align=left;verticalAlign=top;spacingLeft=4;spacingRight=4;overflow=hidden;rotatable=0;points=[[0,0.5],[1,0.5]];portConstraint=eastwest;" vertex="1" parent="W9yFOG3q7UIDgqOnqvDU-68">
          <mxGeometry y="26" width="140" height="26" as="geometry" />
        </mxCell>
        <mxCell id="W9yFOG3q7UIDgqOnqvDU-70" value="Issues" style="text;strokeColor=none;fillColor=none;align=left;verticalAlign=top;spacingLeft=4;spacingRight=4;overflow=hidden;rotatable=0;points=[[0,0.5],[1,0.5]];portConstraint=eastwest;" vertex="1" parent="W9yFOG3q7UIDgqOnqvDU-68">
          <mxGeometry y="52" width="140" height="26" as="geometry" />
        </mxCell>
        <mxCell id="W9yFOG3q7UIDgqOnqvDU-71" value="Documents" style="text;strokeColor=none;fillColor=none;align=left;verticalAlign=top;spacingLeft=4;spacingRight=4;overflow=hidden;rotatable=0;points=[[0,0.5],[1,0.5]];portConstraint=eastwest;" vertex="1" parent="W9yFOG3q7UIDgqOnqvDU-68">
          <mxGeometry y="78" width="140" height="26" as="geometry" />
        </mxCell>
        <mxCell id="W9yFOG3q7UIDgqOnqvDU-75" style="edgeStyle=orthogonalEdgeStyle;rounded=0;orthogonalLoop=1;jettySize=auto;html=1;entryX=1;entryY=0.5;entryDx=0;entryDy=0;" edge="1" parent="1" source="W9yFOG3q7UIDgqOnqvDU-50" target="W9yFOG3q7UIDgqOnqvDU-33">
          <mxGeometry relative="1" as="geometry" />
        </mxCell>
        <mxCell id="W9yFOG3q7UIDgqOnqvDU-78" style="edgeStyle=orthogonalEdgeStyle;rounded=0;orthogonalLoop=1;jettySize=auto;html=1;" edge="1" parent="1" source="W9yFOG3q7UIDgqOnqvDU-59" target="W9yFOG3q7UIDgqOnqvDU-58">
          <mxGeometry relative="1" as="geometry">
            <Array as="points">
              <mxPoint x="700" y="597" />
              <mxPoint x="700" y="451" />
            </Array>
          </mxGeometry>
        </mxCell>
        <mxCell id="W9yFOG3q7UIDgqOnqvDU-81" style="edgeStyle=orthogonalEdgeStyle;rounded=0;orthogonalLoop=1;jettySize=auto;html=1;exitX=1;exitY=0.5;exitDx=0;exitDy=0;entryX=0;entryY=0.5;entryDx=0;entryDy=0;" edge="1" parent="1" source="W9yFOG3q7UIDgqOnqvDU-5" target="W9yFOG3q7UIDgqOnqvDU-42">
          <mxGeometry relative="1" as="geometry" />
        </mxCell>
        <mxCell id="W9yFOG3q7UIDgqOnqvDU-87" value="DMU" style="swimlane;fontStyle=1;align=center;verticalAlign=top;childLayout=stackLayout;horizontal=1;startSize=26;horizontalStack=0;resizeParent=1;resizeParentMax=0;resizeLast=0;collapsible=1;marginBottom=0;" vertex="1" parent="1">
          <mxGeometry x="370" y="660" width="160" height="128" as="geometry">
            <mxRectangle x="940" y="337" width="90" height="26" as="alternateBounds" />
          </mxGeometry>
        </mxCell>
        <mxCell id="W9yFOG3q7UIDgqOnqvDU-88" value="input1: DMU list" style="text;strokeColor=none;fillColor=none;align=left;verticalAlign=top;spacingLeft=4;spacingRight=4;overflow=hidden;rotatable=0;points=[[0,0.5],[1,0.5]];portConstraint=eastwest;" vertex="1" parent="W9yFOG3q7UIDgqOnqvDU-87">
          <mxGeometry y="26" width="160" height="34" as="geometry" />
        </mxCell>
        <mxCell id="W9yFOG3q7UIDgqOnqvDU-91" value="" style="line;strokeWidth=1;fillColor=none;align=left;verticalAlign=middle;spacingTop=-1;spacingLeft=3;spacingRight=3;rotatable=0;labelPosition=right;points=[];portConstraint=eastwest;" vertex="1" parent="W9yFOG3q7UIDgqOnqvDU-87">
          <mxGeometry y="60" width="160" height="8" as="geometry" />
        </mxCell>
        <mxCell id="W9yFOG3q7UIDgqOnqvDU-92" value="output1: DMU" style="text;strokeColor=none;fillColor=none;align=left;verticalAlign=top;spacingLeft=4;spacingRight=4;overflow=hidden;rotatable=0;points=[[0,0.5],[1,0.5]];portConstraint=eastwest;" vertex="1" parent="W9yFOG3q7UIDgqOnqvDU-87">
          <mxGeometry y="68" width="160" height="30" as="geometry" />
        </mxCell>
        <mxCell id="W9yFOG3q7UIDgqOnqvDU-94" value="output2: target explorer" style="text;strokeColor=none;fillColor=none;align=left;verticalAlign=top;spacingLeft=4;spacingRight=4;overflow=hidden;rotatable=0;points=[[0,0.5],[1,0.5]];portConstraint=eastwest;" vertex="1" parent="W9yFOG3q7UIDgqOnqvDU-87">
          <mxGeometry y="98" width="160" height="30" as="geometry" />
        </mxCell>
        <mxCell id="W9yFOG3q7UIDgqOnqvDU-95" style="edgeStyle=orthogonalEdgeStyle;rounded=0;orthogonalLoop=1;jettySize=auto;html=1;exitX=0;exitY=0.5;exitDx=0;exitDy=0;entryX=0;entryY=0.5;entryDx=0;entryDy=0;" edge="1" parent="1" source="W9yFOG3q7UIDgqOnqvDU-92" target="W9yFOG3q7UIDgqOnqvDU-80">
          <mxGeometry relative="1" as="geometry" />
        </mxCell>
        <mxCell id="W9yFOG3q7UIDgqOnqvDU-96" style="edgeStyle=orthogonalEdgeStyle;rounded=0;orthogonalLoop=1;jettySize=auto;html=1;exitX=1;exitY=0.5;exitDx=0;exitDy=0;entryX=1;entryY=0.5;entryDx=0;entryDy=0;" edge="1" parent="1" source="W9yFOG3q7UIDgqOnqvDU-5" target="W9yFOG3q7UIDgqOnqvDU-94">
          <mxGeometry relative="1" as="geometry" />
        </mxCell>
      </root>
    </mxGraphModel>
  </diagram>
</mxfile>
